PathFileType	4	(X/Y/Z)	Kaydara																																																																																																																									
DataRate	CameraRate	NumFrames	NumMarkers	Units	OrigDataRate	OrigDataStartFrame	OrigNumFrames																																																																																																																					
30	30	9	41	mm	30	146	192																																																																																																																					
Frame#	Time	PAIB_LFHD			PAIB_RFHD			PAIB_LBHD			PAIB_RBHD			PAIB_LFTShould			PAIB_RFTShould			PAIB_LRRShould			PAIB_RRRShould			PAIB_T10			PAIB_STRN			PAIB_TRUN			PAIB_LSHO			PAIB_LUPA			PAIB_LELB			PAIB_LFRM			PAIB_LWRA			PAIB_LWRB			PAIB_LFIN			PAIB_RSHO			PAIB_RUPA			PAIB_RELB			PAIB_RFRM			PAIB_RWRA			PAIB_RWRB			PAIB_RFIN			PAIB_LFWT			PAIB_RFWT			PAIB_LBWT			PAIB_RBWT			PAIB_LTHI			PAIB_LKNE			PAIB_LSHN			PAIB_LANK			PAIB_LHEE			PAIB_LTOE			PAIB_RTHI			PAIB_RKNE			PAIB_RSHN			PAIB_RANK			PAIB_RHEE			PAIB_RTOE		
		X1	Y1	Z1	X2	Y2	Z2	X3	Y3	Z3	X4	Y4	Z4	X5	Y5	Z5	X6	Y6	Z6	X7	Y7	Z7	X8	Y8	Z8	X9	Y9	Z9	X10	Y10	Z10	X11	Y11	Z11	X12	Y12	Z12	X13	Y13	Z13	X14	Y14	Z14	X15	Y15	Z15	X16	Y16	Z16	X17	Y17	Z17	X18	Y18	Z18	X19	Y19	Z19	X20	Y20	Z20	X21	Y21	Z21	X22	Y22	Z22	X23	Y23	Z23	X24	Y24	Z24	X25	Y25	Z25	X26	Y26	Z26	X27	Y27	Z27	X28	Y28	Z28	X29	Y29	Z29	X30	Y30	Z30	X31	Y31	Z31	X32	Y32	Z32	X33	Y33	Z33	X34	Y34	Z34	X35	Y35	Z35	X36	Y36	Z36	X37	Y37	Z37	X38	Y38	Z38	X39	Y39	Z39	X40	Y40	Z40	X41	Y41	Z41
																																																																																																																												
145	4.83	256.28473	1649.10004	780.50293	71.97444	1651.88965	774.86038	267.31195	1618.70285	655.11971	64.34985	1633.81683	660.85632	231.65709	1386.69769	774.14261	110.35781	1386.00189	785.08209	226.53383	1445.13611	626.6729	74.87353	1446.8721	648.69179	136.11237	1285.60211	559.30611	182.09124	1321.74911	819.04167	182.23551	1220.78629	844.04053	353.76148	1391.95786	679.42513	400.05707	1167.3494	637.40967	406.05778	1089.91074	583.96759	432.04395	971.62636	605.87341	389.85554	845.51376	688.6644	415.43484	837.23618	610.04189	436.69319	791.90956	664.64615	-20.29297	1392.36115	741.99699	-98.34166	1224.52347	744.54239	-129.32632	1110.4142	769.32732	-128.38636	996.10321	857.95181	-37.91189	944.24179	973.64304	-113.91698	911.44852	953.36525	-88.48748	909.31816	1023.74489	268.34951	931.38046	803.51418	34.79436	925.10376	806.86012	212.72028	966.69357	586.13941	67.9876	976.39145	590.61024	267.47437	678.1694	672.47307	306.14712	498.26775	872.58026	285.40333	307.30814	942.55348	279.26025	103.66503	915.64293	216.11294	82.06816	882.24869	294.43485	94.41591	1089.71298	15.001	698.38432	573.5725	26.66504	448.90484	618.87337	96.94084	265.85306	600.5381	72.92548	88.60079	486.97605	131.26913	97.43448	429.44969	99.71882	48.32524	647.58202
146	4.863	259.94143	1641.13251	821.3517	75.64741	1644.11453	816.32935	270.60022	1609.8085	696.15799	67.74535	1625.20493	702.39929	235.45031	1377.80502	816.21788	114.03643	1377.34665	827.5177	229.65382	1436.76819	668.85086	77.88474	1438.74298	691.37794	138.54181	1277.61246	601.43784	185.66999	1312.93686	861.06819	185.52206	1211.89697	885.77736	357.08141	1383.11783	720.97061	401.98387	1158.49411	676.52344	406.98322	1081.63101	622.2237	433.36544	963.28384	640.85831	392.46376	834.61258	720.09041	417.17503	828.6972	642.1521	439.32404	782.0533	695.01068	-16.44817	1383.88535	785.20378	-94.40748	1216.54488	790.39307	-125.79719	1103.32916	817.92313	-123.52797	991.98769	910.54665	-32.19317	945.16891	1027.63054	-107.99413	911.0804	1009.01611	-82.26425	912.01416	1079.30679	269.4595	922.02011	847.76947	35.9761	916.63643	848.09929	217.67523	958.59962	629.30492	72.48235	969.34418	631.96259	267.86802	667.11761	708.39058	306.00521	483.71807	906.15921	285.00883	311.99802	1002.48268	281.54259	106.15251	1010.68901	218.71851	78.84125	978.84392	290.57899	124.4349	1186.42326	19.29881	698.59497	606.2112	27.71183	447.09492	638.32111	96.94293	264.45532	612.86888	74.97673	93.31985	489.39072	134.41765	104.52969	433.78773	99.33487	48.08543	647.59865
147	4.897	263.93232	1634.58054	863.16414	79.64902	1637.2525	858.20015	274.57731	1602.23831	738.28957	71.61637	1617.45651	744.4529	239.79174	1369.84818	859.34013	118.30165	1369.6962	870.92155	233.72486	1429.21509	711.83502	81.56376	1431.47842	734.8494	142.18594	1270.4097	644.30397	189.75269	1305.03235	904.22081	189.24906	1203.95348	928.68233	360.99327	1374.78683	763.70514	405.23449	1149.79179	718.85887	410.04402	1073.22975	664.42673	436.5089	954.96651	680.69679	396.08639	824.2733	756.43303	421.02634	820.47134	679.21341	443.3181	772.63016	730.82115	-11.77743	1375.34637	829.24767	-89.53968	1208.27301	835.80063	-120.84935	1095.58464	864.64752	-118.16195	985.93681	959.13589	-26.64049	941.88156	1077.00096	-102.1885	906.85104	1058.91296	-76.81508	909.67178	1129.21799	271.73124	914.46625	891.37634	37.94074	909.00841	890.15358	223.84295	951.96617	672.71141	78.53539	963.97942	674.617	272.7305	660.53482	753.35846	307.49079	477.88399	947.72255	284.88298	307.95204	1048.61435	278.85782	102.95114	1064.10873	216.59773	74.06146	1032.05223	278.5775	129.10244	1241.27792	24.88086	697.8315	642.37541	27.653	445.57888	664.14085	94.90148	262.98365	628.78414	72.68447	100.54129	493.00541	132.09105	114.87545	439.23634	98.65438	47.84017	647.83478
148	4.93	268.30072	1629.81262	905.88974	84.05931	1632.14828	900.67223	279.13752	1596.61926	781.31813	76.16249	1611.67282	787.06955	244.67609	1364.37103	903.1543	123.25445	1364.24301	915.03876	238.13602	1423.50174	755.41176	85.93246	1426.08688	778.89153	146.13194	1264.80774	688.30643	194.89662	1299.75571	948.43246	194.47058	1198.67844	972.93922	365.57961	1368.647	807.03751	409.03137	1142.89307	764.49341	414.44901	1066.21544	710.26482	441.3504	948.52936	725.46768	401.04443	816.51787	798.713	427.03285	814.06876	721.97456	448.74245	765.42831	773.04031	-6.76947	1369.17969	873.65639	-83.32983	1201.8689	880.16037	-114.71951	1089.28505	908.81989	-112.32595	979.39369	1002.80785	-21.43962	935.05356	1120.93788	-96.84885	899.98177	1102.33383	-72.21778	903.13957	1172.84378	276.51562	911.16386	936.3179	42.66927	902.47421	934.93324	228.67054	947.19376	717.13028	83.73887	958.79181	719.50882	278.58139	657.49443	803.70514	305.06781	479.24969	1002.26341	277.77847	294.70856	1087.12967	269.99186	88.95688	1080.36377	211.02247	65.32713	1045.09781	269.45042	94.92833	1256.5934	29.83845	695.08347	683.84109	28.50761	442.88403	699.56474	94.33584	262.71576	649.2617	67.42699	110.88901	501.23993	125.86441	130.13857	447.70313	97.90748	47.63594	648.5334
149	4.963	273.16103	1629.92615	949.42726	88.89068	1631.80923	943.77876	284.32259	1596.0939	825.08911	81.28892	1610.70923	830.23666	250.58821	1363.11493	947.96684	128.75271	1363.11462	959.953	243.50161	1421.52954	799.55231	90.84916	1424.68979	823.23433	151.3143	1262.54814	734.20395	200.56597	1298.87314	993.59276	200.13544	1197.79099	1018.1559	370.78175	1366.17981	851.24397	413.9175	1139.31854	811.84586	419.39922	1062.11624	758.79959	447.04033	945.14359	774.07425	407.19631	812.52998	846.47346	433.8974	810.76195	770.02632	455.5138	762.03682	821.09291	-1.5482	1366.64688	918.44933	-77.08455	1198.21945	922.80716	-107.47589	1085.06729	949.73473	-106.01803	973.1752	1040.88211	-16.68873	925.7608	1158.74443	-92.22048	891.57738	1138.6515	-68.15691	893.12119	1209.42863	283.02893	913.02017	982.733	49.45828	899.5723	982.53418	233.91607	946.87759	763.46695	88.12325	955.94704	766.48216	281.40032	659.0387	852.79991	306.02308	481.55781	1049.8288	273.98275	294.22232	1128.29758	272.21413	89.37602	1107.37732	212.86449	69.5608	1065.97206	262.18224	71.7295	1288.37311	34.70909	692.53372	730.49034	30.84448	440.46719	743.9994	94.08639	264.49631	676.88202	62.62697	127.76618	514.70299	120.72769	152.5571	463.16788	97.6136	47.30009	650.14458
150	4.997	278.29683	1633.33878	993.20366	94.009	1635.00732	987.31941	289.63127	1598.78357	869.13322	86.69508	1613.25546	873.86734	255.69794	1366.61392	992.67365	134.31624	1366.60294	1005.17113	248.29485	1424.33685	844.45251	95.58943	1428.01636	868.54187	155.69188	1265.38261	779.8275	206.23804	1302.57599	1038.75	205.89977	1201.69174	1064.06876	375.80219	1368.83575	896.18942	418.4729	1141.0659	861.72653	424.54628	1062.96936	810.34485	453.00812	946.82365	826.51024	414.35486	814.20166	899.68681	441.28559	812.32643	823.34549	463.30616	764.0554	874.62646	3.30185	1369.48288	964.16397	-70.45575	1199.51439	963.59009	-99.55782	1085.25894	986.72569	-100.02646	969.43199	1072.42027	-13.06774	915.77278	1189.46587	-88.35646	883.11424	1166.40137	-65.58063	881.09299	1237.51595	290.11164	920.40901	1028.66554	57.07633	900.52238	1030.89348	237.0516	952.0752	809.56215	91.48037	956.045	814.79095	288.68929	666.09703	896.43845	311.44911	492.77905	1094.04961	273.95651	291.48191	1160.72029	274.15899	89.99843	1120.0206	217.76197	74.39951	1073.16368	254.54008	54.28098	1295.84198	41.34813	687.85896	784.21509	31.30094	437.38464	802.94502	92.21614	268.40427	717.33932	59.38875	153.47968	537.64359	119.30204	183.78082	492.26093	97.5715	46.84204	652.45872
151	5.03	283.2518	1637.73819	1036.83067	99.01648	1640.02991	1031.00601	294.43624	1602.83127	912.72224	91.38922	1618.06351	917.65213	260.35208	1371.98608	1036.52184	139.3179	1371.59485	1049.18762	252.84109	1429.25507	888.62091	100.29661	1433.23486	913.02322	160.0732	1270.39452	823.9785	211.28628	1307.97684	1082.79602	211.2491	1207.14615	1108.56827	380.58357	1374.50043	941.15204	423.25066	1146.0244	913.19145	430.48138	1067.03659	862.66975	459.57275	951.50795	882.0224	421.8644	820.40146	958.16574	448.72234	816.80733	882.06657	471.22845	770.0193	934.3161	7.9285	1375.13733	1009.13406	-65.20005	1203.70743	1002.68471	-92.8232	1087.97806	1019.57748	-95.13907	967.23938	1098.14682	-10.42958	906.0376	1213.60168	-85.14599	875.1548	1186.97266	-63.90684	867.85645	1257.95509	297.95811	927.95639	1073.10501	65.11635	904.68338	1076.11557	241.09859	956.2709	853.91106	95.68155	957.4942	860.03387	299.11875	670.90431	938.75801	311.4094	491.56052	1137.64465	275.07299	288.47843	1183.13499	274.08535	90.30369	1127.30576	219.61239	77.58048	1076.96533	249.22998	47.44844	1299.82468	48.34617	676.10336	844.33006	29.96978	431.58073	878.66081	87.56364	273.76728	774.38301	56.74801	184.89872	578.94348	118.44941	221.67894	543.70094	100.87237	48.05253	652.95135
152	5.063	287.23091	1642.55295	1079.98573	102.96982	1645.05142	1074.25247	298.4907	1608.26019	955.80551	95.38651	1623.49503	960.73189	263.91382	1377.30728	1080.05768	142.81198	1376.44943	1091.39038	257.70567	1434.49951	931.84151	104.89839	1438.05679	955.09743	166.3052	1275.11604	866.83273	214.23218	1313.14255	1125.87624	214.28524	1212.36595	1151.67747	385.00084	1380.74341	986.33942	429.77325	1152.10213	963.03345	438.01819	1071.79459	914.80461	467.00035	956.78642	939.01779	428.80531	829.27933	1020.82809	456.13625	822.45735	944.84947	478.46272	778.12431	999.56718	11.45476	1379.70169	1050.43076	-62.21053	1208.04283	1038.61801	-87.90845	1090.82306	1050.7917	-91.76493	965.59509	1121.32301	-8.68435	895.92506	1232.87575	-83.22419	867.64938	1203.70033	-62.08129	853.98674	1273.78891	302.7388	933.0558	1116.13365	69.74778	908.43918	1116.62308	245.88726	960.65453	896.52939	100.68166	957.733	900.06332	302.76258	677.32796	975.89561	314.61586	489.41124	1160.40894	271.44917	284.25529	1198.93456	273.20477	89.91734	1131.32942	219.85184	79.40313	1078.9315	247.31829	44.41294	1302.43378	54.51975	661.63696	906.93016	30.01345	425.71083	962.05925	86.82752	281.60877	844.16763	56.60092	215.32051	641.8409	116.77868	257.83283	611.32076	98.09878	56.15912	696.2532
153	5.097	289.98819	1648.6026	1122.96402	105.82246	1650.25803	1116.25931	302.06511	1615.16312	998.49861	98.8923	1629.38721	1002.52647	265.4987	1382.63672	1123.23456	144.07798	1381.36795	1131.63094	263.03316	1440.63187	975.04913	109.59951	1443.34595	995.06813	174.25289	1280.96741	907.94235	214.57775	1318.09982	1167.54066	213.99549	1217.16583	1192.85599	388.81615	1386.92062	1032.41684	436.98414	1158.75847	1013.28667	447.26524	1077.28447	967.36916	475.19859	962.75719	997.94991	434.49287	840.31456	1085.93681	463.10307	828.73566	1011.24985	484.76154	788.25958	1068.74161	13.16821	1383.65173	1087.36061	-59.32611	1211.82892	1070.73212	-84.56679	1094.0258	1079.9057	-90.04698	965.44838	1142.26715	-7.75924	886.86577	1247.89459	-83.78848	862.41501	1218.01506	-60.29188	841.90804	1285.94223	305.83586	937.9953	1156.38474	72.60699	915.16739	1156.47408	249.57117	967.73232	936.19316	104.47017	958.7822	937.81174	303.15847	684.9482	1003.3078	316.19324	487.74632	1180.01709	274.35925	281.86684	1207.94769	273.16792	90.61511	1132.40273	219.27088	81.57391	1079.56085	246.96762	43.48392	1302.94525	61.45238	655.53871	968.36342	28.19911	430.29034	1046.65695	88.38006	291.72646	923.95889	62.07042	238.90551	715.99731	125.16953	280.25652	690.03922	88.32656	77.03768	766.77055
